<?xml version="1.0" encoding="UTF-8"?>
<svg width="26px" height="27px" viewBox="0 0 26 27" version="1.1" xmlns="http://www.w3.org/2000/svg" xmlns:xlink="http://www.w3.org/1999/xlink">
    <!-- Generator: Sketch 50.2 (55047) - http://www.bohemiancoding.com/sketch -->
    <title>whatsapp - FontAwesome</title>
    <desc>Created with Sketch.</desc>
    <defs></defs>
    <g id="email-fix" stroke="none" stroke-width="1" fill="none" fill-rule="evenodd">
        <g id="email" transform="translate(-647.000000, -1765.000000)" fill="#FFFFFF">
            <g id="Group-16" transform="translate(248.000000, 219.000000)">
                <g id="Group" transform="translate(209.000000, 111.000000)">
                    <g id="Group-8" transform="translate(148.000000, 1423.000000)">
                        <g id="Group-20" transform="translate(42.000000, 13.000000)">
                            <path d="M16.489975,13.5915066 C16.7745736,13.5915066 19.5033715,15.0144994 19.6205591,15.2153925 C19.6540413,15.299098 19.6540413,15.3995445 19.6540413,15.4665089 C19.6540413,15.8850362 19.5201126,16.3537867 19.3694427,16.7388318 C18.9843976,17.6763329 17.4274761,18.2790122 16.4732339,18.2790122 C15.6696615,18.2790122 14.0122935,17.5758864 13.2924266,17.2410646 C10.8984505,16.1528936 9.40849336,14.2946325 7.9687595,12.1685139 C7.33259803,11.2310128 6.76340092,10.0758775 6.78014201,8.92074214 L6.78014201,8.78681341 C6.81362419,7.68190138 7.21541039,6.89507009 8.01898277,6.14172097 C8.27009914,5.9073457 8.53795661,5.77341696 8.88951953,5.77341696 C9.09041262,5.77341696 9.29130572,5.82364024 9.50893991,5.82364024 C9.96094937,5.82364024 10.0446548,5.95756897 10.2120657,6.39283735 C10.3292534,6.6774359 11.183049,8.95422433 11.183049,9.12163524 C11.183049,9.75779671 10.0279137,10.4776636 10.0279137,10.8627087 C10.0279137,10.9464142 10.0613959,11.0301197 10.1116192,11.1138251 C10.4799232,11.9006564 11.183049,12.8046753 11.8192105,13.4073546 C12.5893007,14.1439627 13.4096142,14.6294543 14.3471153,15.0982049 C14.464303,15.1651692 14.5814906,15.2153925 14.7154193,15.2153925 C15.2176521,15.2153925 16.0547066,13.5915066 16.489975,13.5915066 Z M13.0915335,22.4642851 C18.8839511,22.4642851 23.6049389,17.7432973 23.6049389,11.9508797 C23.6049389,6.15846207 18.8839511,1.4374743 13.0915335,1.4374743 C7.29911584,1.4374743 2.57812807,6.15846207 2.57812807,11.9508797 C2.57812807,14.1607037 3.28125391,16.3203045 4.58705904,18.1116013 L3.26451282,22.0122756 L7.31585694,20.7232116 C9.02344826,21.8448647 11.0491203,22.4642851 13.0915335,22.4642851 Z M13.0915335,-0.671903219 C20.0558275,-0.671903219 25.7143164,4.98658567 25.7143164,11.9508797 C25.7143164,18.9151737 20.0558275,24.5736626 13.0915335,24.5736626 C10.9654149,24.5736626 8.85603734,24.0379477 6.98103511,23 L0,25.2433062 L2.27678843,18.4631642 C1.08817094,16.5044565 0.468750559,14.2444092 0.468750559,11.9508797 C0.468750559,4.98658567 6.12723945,-0.671903219 13.0915335,-0.671903219 Z" id="whatsapp---FontAwesome"></path>
                        </g>
                    </g>
                </g>
            </g>
        </g>
    </g>
</svg>